<?xml version="1.0" encoding="UTF-8" standalone="no"?>
<!-- Created with Inkscape (http://www.inkscape.org/) -->

<svg
   xmlns:dc="http://purl.org/dc/elements/1.1/"
   xmlns:cc="http://creativecommons.org/ns#"
   xmlns:rdf="http://www.w3.org/1999/02/22-rdf-syntax-ns#"
   xmlns:svg="http://www.w3.org/2000/svg"
   xmlns="http://www.w3.org/2000/svg"
   xmlns:sodipodi="http://sodipodi.sourceforge.net/DTD/sodipodi-0.dtd"
   xmlns:inkscape="http://www.inkscape.org/namespaces/inkscape"
   width="210mm"
   height="297mm"
   viewBox="0 0 210 297"
   version="1.1"
   id="svg3592"
   inkscape:version="0.92pre1 unknown"
   sodipodi:docname="Smiling Girl White for T-Shirt.svg">
  <title
     id="title3618">Smiling Boy White on Transparent</title>
  <defs
     id="defs3586" />
  <sodipodi:namedview
     id="base"
     pagecolor="#ffffff"
     bordercolor="#666666"
     borderopacity="1.0"
     inkscape:pageopacity="0.0"
     inkscape:pageshadow="2"
     inkscape:zoom="0.7"
     inkscape:cx="297.63605"
     inkscape:cy="531.46046"
     inkscape:document-units="mm"
     inkscape:current-layer="layer1"
     showgrid="false"
     inkscape:window-width="1920"
     inkscape:window-height="1054"
     inkscape:window-x="0"
     inkscape:window-y="0"
     inkscape:window-maximized="1" />
  <metadata
     id="metadata3589">
    <rdf:RDF>
      <cc:Work
         rdf:about="">
        <dc:format>image/svg+xml</dc:format>
        <dc:type
           rdf:resource="http://purl.org/dc/dcmitype/StillImage" />
        <dc:title>Smiling Boy White on Transparent</dc:title>
        <dc:creator>
          <cc:Agent>
            <dc:title>Rygle - remix from https://openclipart.org/detail/190652/face-of-a-girl-smiling</dc:title>
          </cc:Agent>
        </dc:creator>
        <dc:rights>
          <cc:Agent>
            <dc:title>Public Domain</dc:title>
          </cc:Agent>
        </dc:rights>
        <dc:description>Smiling Girl adapted from remix from https://openclipart.org/detail/190652/face-of-a-girl-smiling for a T-Shirt design. I put the white layer over a coloured background to make it visible, but it can easily be separated.</dc:description>
        <dc:contributor>
          <cc:Agent>
            <dc:title>Rygle, Knollbaco</dc:title>
          </cc:Agent>
        </dc:contributor>
        <dc:subject>
          <rdf:Bag>
            <rdf:li>girl</rdf:li>
            <rdf:li>cartoon</rdf:li>
            <rdf:li>kid</rdf:li>
            <rdf:li>child</rdf:li>
            <rdf:li>face</rdf:li>
            <rdf:li>happy</rdf:li>
            <rdf:li>human</rdf:li>
            <rdf:li>human being</rdf:li>
            <rdf:li>people</rdf:li>
            <rdf:li>person</rdf:li>
            <rdf:li>line art</rdf:li>
            <rdf:li>grin</rdf:li>
            <rdf:li></rdf:li>
          </rdf:Bag>
        </dc:subject>
        <dc:date>2016-08-04</dc:date>
        <cc:license
           rdf:resource="http://creativecommons.org/publicdomain/zero/1.0/" />
      </cc:Work>
      <cc:License
         rdf:about="http://creativecommons.org/publicdomain/zero/1.0/">
        <cc:permits
           rdf:resource="http://creativecommons.org/ns#Reproduction" />
        <cc:permits
           rdf:resource="http://creativecommons.org/ns#Distribution" />
        <cc:permits
           rdf:resource="http://creativecommons.org/ns#DerivativeWorks" />
      </cc:License>
    </rdf:RDF>
  </metadata>
  <g
     inkscape:label="Layer 1"
     inkscape:groupmode="layer"
     id="layer1">
    <path
       inkscape:connector-curvature="0"
       id="path18"
       style="fill:#008080;fill-opacity:1;fill-rule:nonzero;stroke:none;stroke-width:1.19527006"
       d="M 93.947583,20.414276 C 70.86332,20.615194 48.069525,33.39971 36.700122,53.606944 30.420154,57.668476 23.16009,60.592092 18.411269,66.713088 5.4031461,80.934412 3.6664392,101.81457 6.8327156,120.03766 11.721367,151.53064 28.29618,179.99721 48.172322,204.38788 37.745982,213.78751 27.992566,223.97 19.471494,235.13862 c 13.843612,15.07592 27.420677,33.08986 48.00681,39.00045 12.961536,3.06229 26.477647,1.87657 39.644746,1.35425 13.79222,-1.31718 28.23347,-3.51648 40.16704,-10.9451 2.98816,-3.52485 7.84452,-1.86224 11.76145,-3.45434 17.11265,-3.50692 35.55929,-9.91236 45.65932,-25.1377 2.83396,-4.09023 1.16658,-9.69365 -3.01686,-12.14515 -7.00311,-4.40696 -14.2261,-8.77688 -19.37175,-15.44408 -11.63476,-14.7592 -13.81613,-34.76565 -14.45084,-52.98037 0,-5.84009 -0.16365,-11.85469 0.51876,-17.51788 7.65211,-6.06001 11.77938,-18.60077 5.13609,-26.80034 -3.67548,-3.42682 -0.68251,-8.75414 -1.83116,-13.086993 -0.55102,-21.346336 -6.08275,-44.31347 -22.51407,-59.15632 C 134.59513,24.906106 113.63606,19.845335 93.947583,20.414276 Z M 75.228432,91.52928 c -1.610024,-0.46733 -2.437143,-1.545479 0,0 z" />
    <path
       inkscape:connector-curvature="0"
       id="path20"
       style="fill:#ffffff;fill-opacity:1;fill-rule:nonzero;stroke:none;stroke-width:1.19527006"
       d="M 100.57295,28.29591 C 90.477693,27.842912 79.496743,29.10392 69.234154,33.806121 58.971564,38.507102 49.427333,46.645683 42.213891,59.952643 26.956261,67.212707 3.0174019,79.337535 18.145941,135.99213 c 15.15961,43.85566 41.232033,69.22287 41.232033,69.22287 -0.682512,-0.70999 -22.318096,19.80086 -29.873404,29.73236 1.084111,1.06856 1.494114,2.09172 2.274612,2.20766 3.174645,-4.19659 16.966858,-21.84118 29.88174,-30.11481 8.702779,-5.57954 17.382823,-10.91163 20.875414,-12.5408 2.030766,-6.10663 0.803199,-11.10285 -0.196175,-17.04695 -10.178936,-2.40845 -15.866009,-5.6823 -21.762301,-9.91713 -9.250172,-6.65287 -14.273909,-15.45845 -18.317518,-26.14178 -0.840265,1.48933 -1.592099,2.28776 -2.62837,2.381 -1.204833,0.1074 -2.255504,-0.55939 -3.912148,-1.0686 -5.804202,0.14942 -5.664372,-4.04835 -5.24363,-5.36435 -1.325552,-0.89166 -2.170595,-2.57819 -1.531146,-5.29028 -3.259485,-4.13682 -4.300568,-7.70829 -4.907761,-12.78339 -0.718359,-6.63976 2.885363,-9.48805 4.822921,-10.15982 1.966221,-0.68248 3.12921,-0.99924 6.083929,-0.0203 3.105289,1.02675 5.028481,3.84757 4.930461,3.71133 -0.06946,1.55981 -0.475699,9.00277 2.054687,17.71032 8.712333,-14.70783 10.514805,-31.334006 11.430355,-49.846343 0.09318,-1.998511 0.191093,-3.996987 0.284606,-6.037308 7.955722,8.758921 28.569367,18.438238 73.746994,28.219131 16.39792,3.54873 22.11251,12.51328 23.0364,15.10462 4.49182,-3.02045 4.54322,-4.7536 9.0028,-5.49107 2.99293,-0.40641 6.90505,2.25069 7.74054,5.49107 1.11162,3.06707 0.94309,7.45129 -1.21317,10.22074 -1.60169,1.73675 -3.99221,3.63243 -5.63571,4.96276 -0.33577,1.62079 -0.81279,3.1328 -1.04586,4.93527 0.0135,-0.0515 -3.26907,1.3124 -4.23484,1.90527 1.0315,1.69967 1.28849,1.34466 1.51679,4.14159 -1.78333,1.5921 -4.41174,1.33514 -4.40218,1.12477 0,0 -0.69566,0.47214 -1.70445,0.84027 0.0515,-0.0237 0.12197,-0.0468 0.14467,-0.0695 0.0837,-0.0752 0.14468,-0.043 0.11723,-0.31781 -0.0305,-0.23311 -0.23446,-0.70521 -0.63589,-1.31719 -0.53665,-0.042 -1.03149,-0.18634 -1.50719,-0.39204 -0.47214,-0.20566 -0.91081,-0.46614 -1.28375,-0.80323 -0.36453,0.36934 -0.5976,0.69206 -0.70999,0.93469 -0.16364,0.37294 -0.15416,0.55939 -0.0705,0.76976 0.0884,0.21515 0.35024,0.47692 0.70044,0.70999 0.34545,0.22836 0.77097,0.45781 1.261,0.57375 0.49485,0.11723 1.00405,0.11249 1.39129,0.0657 0.12062,-0.0136 0.20566,-0.0369 0.30358,-0.061 -1.56459,0.51396 -3.73041,0.70522 -5.37869,-1.27893 -1.86824,3.40891 -10.08569,26.74894 -34.99513,32.93567 -1.75466,9.71635 -0.55939,18.5494 0.61675,18.60558 7.41904,4.24917 14.90384,7.7549 21.52923,12.28854 16.23414,11.11245 20.66498,31.90895 20.92197,45.64499 9.8514,-1.60166 36.71632,-7.32102 45.58282,-23.09263 -10.38809,-9.57649 -42.65561,-14.85241 -37.93549,-97.27944 1.46183,-1.31241 3.76751,-2.21841 5.56995,-4.91613 1.34947,-1.59691 3.71251,-7.28399 3.07303,-9.73072 -0.71477,-2.74553 -1.55025,-3.97306 -4.64121,-6.23812 -2.14315,-16.841492 5.03326,-58.666387 -36.61471,-79.39716 -7.04133,-2.483764 -16.74335,-4.935273 -27.31429,-5.411005 h -0.007 z m -1.508426,1.863425 c 0.644259,0.03388 1.251456,0.09317 1.820406,0.172118 7.8577,1.106813 17.83582,1.638722 27.35135,6.159215 26.37483,12.52165 29.84946,30.922855 32.1934,47.030305 1.29326,8.591614 2.62362,19.213957 2.37141,28.519147 -4.11293,-0.9622 -6.43413,0.0837 -8.75418,1.63395 -1.20483,0.8032 -2.10127,1.68531 -2.75987,2.40485 -4.75712,-6.61221 -9.81912,-10.77176 -18.05931,-13.64279 -8.2366,-2.872252 -15.72973,-3.171054 -26.98679,-6.373177 -19.861812,-5.659595 -41.02766,-8.93226 -53.138123,-24.139677 -1.415204,-1.256231 -2.779009,-2.567452 -4.090229,-3.936034 0.06099,0.257162 0.139931,0.513985 0.213793,0.770943 0.58927,1.041083 1.714006,2.75868 3.548766,4.901798 -2.403701,11.981407 -1.965035,15.006634 -2.655882,22.453148 -1.209644,10.347469 -3.053925,21.375029 -7.540977,30.162649 -2.366635,-4.81814 -1.611209,-9.68406 -2.064241,-14.17948 -2.959463,-3.56309 -6.885942,-5.78512 -12.050695,-4.16073 -2.927207,0.62633 -4.136851,2.82918 -5.01896,5.28547 -0.825934,2.30686 -0.475699,8.63345 0.443443,11.72441 0.952651,3.20212 1.527555,4.29938 3.725663,7.38079 1.06978,1.49889 0.09792,5.21615 1.55029,6.1401 -0.410002,5.09425 6.999479,5.54724 7.181153,5.45763 0.989684,0.85459 2.069018,0.84145 3.14239,0.92032 1.180912,0.0752 1.670976,-0.51395 2.70369,-1.50363 1.097258,2.86744 2.506498,6.98037 4.528895,10.39764 3.057483,5.17434 7.488359,10.80405 14.007362,15.58991 5.592679,4.10934 10.799276,7.50391 19.982531,9.52512 1.75585,5.37872 1.532333,8.55336 -0.270037,14.31575 -6.81662,3.14714 -10.313988,6.41502 -16.929826,9.64584 -0.989683,0.48526 -1.929155,0.95262 -2.936762,1.44269 C 31.218542,171.76539 -10.733069,93.868437 39.235217,62.97787 c 2.792155,-1.200055 4.51453,-1.386506 4.51453,-1.386506 l 0.692067,-0.06573 0.265294,-0.616782 c 0,0 4.912537,-11.457834 17.803532,-20.454638 9.263352,-6.39232 26.888802,-10.823163 36.553754,-10.294879 z m 8.026236,6.410243 c -5.79464,-0.242593 -12.106872,0.07894 -21.198105,0.80801 12.635189,0.154162 22.645565,0.09317 31.194155,2.133529 8.55336,2.035543 19.60959,8.492408 36.86211,25.563249 C 136.75739,45.810195 126.4434,39.660535 117.45974,37.644101 113.8608,37.059643 110.56902,36.714185 107.09076,36.569578 Z M 69.238965,60.41401 C 61.423072,60.045885 57.201382,61.586587 56.067057,62.07184 63.26261,70.181758 70.737822,75.920263 78.319423,80.196944 102.32283,93.124971 127.18087,91.630891 147.78615,103.67322 116.60989,75.298704 93.559095,64.920171 78.333755,61.60451 74.916483,60.904074 71.881701,60.545505 69.243742,60.418787 Z M 54.5682,77.988062 c -0.02372,1.596877 -0.09792,4.17988 -0.279524,7.423847 -0.06099,1.228719 -0.181606,2.629591 -0.294093,4.025652 -0.182961,2.305681 -0.4016,4.73327 -0.709991,7.36286 -0.335767,2.861477 -0.751834,5.873559 -1.278931,8.922709 -0.528317,3.04792 -1.148657,6.12573 -1.924378,9.15096 -0.774535,3.02523 -1.699674,5.99428 -2.768268,8.79121 -0.536652,1.39609 -1.097258,2.74076 -1.714006,4.03883 -0.62034,1.30285 -1.293264,2.55908 -2.002068,3.73522 l -0.611971,1.0363 c 0.01694,0.64904 0.0742,1.65783 0.223619,2.97502 0.154161,1.31122 0.415931,2.92724 0.840265,4.73804 0.420743,1.81206 0.986093,3.81532 1.807249,5.94888 0.406377,1.06497 0.901219,2.1706 1.433127,3.287 0.537872,1.11159 1.121145,2.26024 1.797694,3.39935 0.803199,1.36262 1.723561,2.72639 2.755088,4.09019 1.031528,1.36262 2.204071,2.73598 3.48778,4.06153 1.283743,1.32556 2.689358,2.59138 4.257571,3.8428 0.234123,0.1816 0.476919,0.36934 0.719545,0.55101 1.372174,1.05545 2.843554,2.07739 4.445208,3.0396 1.886159,1.13429 3.953958,2.18015 6.181949,3.1555 2.231549,0.98131 4.626881,1.90527 7.231366,2.69413 2.605704,0.78531 5.412191,1.45227 8.423086,2.00807 3.012081,0.55579 6.201058,0.97176 9.647027,1.26101 h 0.03693 c 0.943063,0.0884 1.95663,0.11587 3.04434,0.0789 1.082916,-0.042 2.259066,-0.14467 3.459116,-0.32154 1.20006,-0.17347 2.42881,-0.41596 3.71252,-0.72432 1.28849,-0.31306 2.61404,-0.68132 3.96351,-1.13432 1.34944,-0.453 2.73598,-0.98491 4.11771,-1.57777 1.38769,-0.59283 2.77423,-1.2562 4.17029,-1.9937 1.3961,-0.73869 2.7826,-1.55981 4.15955,-2.44192 1.37814,-0.88689 2.74076,-1.83476 4.07587,-2.87225 1.33632,-1.03631 2.66665,-2.16582 3.93603,-3.35154 1.27534,-1.18691 2.50765,-2.41444 3.69338,-3.75433 1.18091,-1.33992 2.31164,-2.79215 3.38501,-4.28623 1.06975,-1.49412 2.06899,-3.06708 3.00249,-4.72013 0.93829,-1.65305 1.8204,-3.37546 2.60093,-5.19226 0.77454,-1.81562 1.46538,-3.71611 2.05824,-5.69548 0.59287,-1.98533 1.06501,-4.06272 1.4475,-6.21061 0.38846,-2.15267 0.66337,-4.36989 0.81757,-6.69472 l 0.0102,-0.19244 0.0742,-0.1911 c 0,0 0.18297,-0.38726 0.57491,-0.97054 0.39204,-0.57971 0.99924,-1.32199 1.88131,-1.97103 0.66341,-0.48525 1.48931,-0.91914 2.47421,-1.20361 0.49484,-0.14095 0.99927,-0.25208 1.57418,-0.31307 0.57375,-0.0562 1.20364,-0.0884 1.85746,-0.0369 0.87374,0.06 1.81203,0.25208 2.82563,0.55102 -0.77576,0.20905 -1.83954,0.4243 -2.75035,0.70399 -0.45777,0.14095 -0.85937,0.28562 -1.18091,0.45781 -0.32289,0.17822 -0.58449,0.36453 -0.65859,0.58327 0.43389,0.29037 0.88211,0.6586 1.27416,1.06023 0.48051,0.49484 0.79367,0.99446 0.92513,1.4893 0.12537,0.49484 0.0742,0.97654 -0.0979,1.44746 -0.17822,0.46736 -0.49125,0.92036 -0.92992,1.33989 -0.43389,0.42074 -0.99446,0.79845 -1.6435,1.14865 0.13146,-0.58327 0.29409,-0.99924 0.45778,-1.30282 0.16365,-0.29883 0.35023,-0.48528 0.43389,-0.6861 0.08,-0.20092 0.085,-0.39682 -0.0369,-0.67652 -0.11723,-0.2846 -0.36934,-0.65859 -0.80319,-1.20005 -0.33103,-0.33102 -0.77935,-0.63467 -1.21802,-0.89166 -0.43507,-0.25717 -0.85459,-0.46259 -1.16299,-0.60242 -0.54624,0.41115 -0.90599,0.83071 -1.14865,1.16658 -0.24734,0.33712 -0.39682,0.57972 -0.42908,0.65859 -0.0979,1.35425 -0.21515,2.67144 -0.38845,3.97307 0.29883,-0.0644 0.60716,-0.0789 0.8964,-0.0837 0.52832,-0.0135 1.0459,0.0339 1.51801,0.19584 0.47214,0.16839 0.88688,0.44825 1.25623,0.77097 0.51276,0.44345 0.96102,1.7176 1.1905,2.36183 0.59764,0.0135 1.07333,-0.11113 1.57776,0.0752 0.5044,0.18634 0.8546,0.41955 1.23709,0.73272 0.38846,0.31307 0.5044,0.72791 0.53787,1.12474 0.0339,0.46736 -0.0752,1.32196 -0.35497,2.10608 0.3502,-0.21413 0.57849,-0.24733 0.96098,-0.35979 0.18296,-1.4606 0.32289,-2.61407 0.46733,-4.21573 l 0.96221,-0.74224 c 2.56267,-1.63395 4.06153,-3.97788 5.69547,-6.94334 1.04108,-2.74435 0.77572,-5.8126 -0.81638,-8.71233 -1.28848,-2.34868 -3.67904,-2.91288 -5.88311,-2.45507 -2.48854,0.51277 -6.87279,3.87027 -8.77329,6.9469 -2.19926,-7.65689 -7.3999,-11.96226 -17.34573,-15.74888 -9.93986,-3.78184 -29.27454,-2.53039 -41.217704,-6.709047 -4.687834,-1.619578 -9.211953,-3.426826 -13.400168,-5.36435 0.0742,0.06099 0.149418,0.130445 0.223619,0.195836 -2.189739,-1.111623 -7.306685,-3.781838 -9.05298,-4.80022 -1.844316,-1.073337 -3.641976,-2.212439 -5.373939,-3.407717 -1.73193,-1.195278 -3.426826,-2.456286 -5.023704,-3.777061 -1.601688,-1.321962 -3.100546,-2.713245 -4.543227,-4.17507 z m 18.200388,14.609812 c 0.989684,-0.01355 5.285474,1.765404 6.662425,2.213625 0.284606,0.25208 0.560572,0.517543 0.817565,0.811602 0.377713,0.430297 0.74228,0.905996 1.059005,1.437904 0.322554,0.528317 0.592862,1.11159 0.845077,1.746296 0.257162,0.63108 0.486473,1.321959 0.663369,2.059429 l 0.588051,2.40967 -2.268616,-1.13911 c -1.728338,-0.85937 -3.282219,-1.70923 -4.82292,-2.414439 -0.770944,-0.354978 -1.569366,-0.676515 -2.343901,-0.94784 -0.770943,-0.271392 -1.545478,-0.494841 -2.353489,-0.658592 -0.80801,-0.162632 -1.648275,-0.279862 -2.535162,-0.31205 -0.891698,-0.02372 -1.788139,0.02372 -2.792155,0.157889 -1.00405,0.131461 -2.120417,0.345423 -3.277442,0.682512 -1.162989,0.335768 -2.385744,0.793645 -3.744772,1.36736 0.163648,-0.448218 0.406377,-0.877295 0.690847,-1.288483 0.284606,-0.411188 0.607194,-0.80801 0.980129,-1.176135 0.751835,-0.737502 1.648276,-1.400872 2.58297,-1.970998 0.92873,-0.573753 1.87657,-1.050671 2.749125,-1.447493 0.87374,-0.4016 1.685342,-0.708771 2.265058,-0.92392 1.386505,-0.359789 2.805301,-0.578529 4.234836,-0.607193 z m -6.326555,8.395576 c 0.401599,0.75539 1.675753,2.16104 2.72639,2.04869 10.747877,-0.47096 21.085752,14.00258 13.14321,25.02178 0.780498,1.15821 0.756578,2.08694 0.719545,3.46389 -6.49034,-5.6166 -13.544809,-6.08274 -19.101607,-5.16834 -2.721647,0.44822 -5.03807,1.23231 -6.704269,1.91482 -1.741518,0.71355 -2.769454,1.31597 -2.769454,1.31597 0.822342,-1.0315 1.718783,-2.0164 2.639145,-2.83397 0.975352,-0.863 1.97459,-1.53592 2.936796,-1.85746 -1.088889,-1.27056 -2.783786,-3.57265 -3.619274,-6.40665 v -0.0169 c -0.411188,-1.39606 -0.602416,-2.95591 -0.377713,-4.55756 0.120619,-0.89167 0.368158,-1.7977 0.784089,-2.69414 0.308324,-0.67173 0.719546,-1.31599 1.214387,-1.96503 -0.836674,-0.13146 -1.929154,-0.60719 -2.498095,-1.34944 -0.387268,-0.50443 -0.531909,-1.13073 -0.154162,-1.8682 0.03388,-0.0695 0.06099,-0.13045 0.102661,-0.20092 0.536686,0.77572 1.69012,1.10204 2.890175,1.14862 1.036271,0.0468 1.825172,-0.1074 2.045098,-0.15416 0.08369,-0.0647 0.162632,-0.13044 0.247336,-0.19617 -1.951889,-0.64901 -3.269073,-2.3439 -1.849092,-4.12727 0.970574,1.94234 4.641247,2.31646 4.641247,2.31646 0.335768,-0.1877 0.662184,-0.38371 1.026717,-0.56538 0.369344,-0.18635 0.747057,-0.33577 1.121178,-0.47692 -0.528317,-0.98014 -0.518762,-1.91364 0.835488,-2.80053 z m 62.919017,4.48583 0.0102,0.003 c 1.19524,1.0877 1.05541,2.01284 0.38367,2.89495 0.0932,0.0562 0.18635,0.12198 0.27987,0.17822 0.82593,0.33577 1.62913,0.73269 2.38574,1.19528 1.08293,-0.0339 3.03001,-0.11249 4.01135,-1.26101 0.69922,1.57773 0.0468,2.78737 -1.4666,3.29177 0.22836,0.24733 0.43389,0.50917 0.63467,0.77453 0.23785,0.0515 0.49962,0.0979 0.7889,0.13146 1.19047,0.14468 2.38216,0.007 3.03119,-0.67295 0.0339,0.0752 0.0502,0.14467 0.0691,0.21515 0.25717,0.7889 0.0203,1.38172 -0.44822,1.82039 -0.56538,0.53309 -1.44749,0.81756 -2.21725,0.90125 0.17212,0.65859 0.2941,1.33033 0.37294,2.01284 0.0136,0.0515 0.0369,0.10267 0.0515,0.15417 0.26665,0.95261 0.36934,1.88612 0.34542,2.78256 -0.0305,1.61961 -0.46614,3.12803 -1.09248,4.44043 0,0 0,0 -0.0136,0.0169 -0.68129,1.42954 -1.58251,2.64274 -2.46462,3.65157 -0.0237,0.0271 -0.0369,0.0562 -0.061,0.0789 -0.24734,0.2941 -0.51758,0.57491 -0.79846,0.84145 -0.20566,0.20431 -0.38726,0.37772 -0.57849,0.55461 0.22836,0.14468 0.45777,0.37412 0.65378,0.63112 0.20092,0.26529 0.38249,0.56416 0.51758,0.92392 0.085,0.22463 0.1362,0.46736 0.17821,0.71958 0.1911,0.20566 0.38249,0.4243 0.56895,0.64903 0.77572,0.95262 1.50844,2.0678 2.15748,3.21646 0,0 -0.92036,-0.75661 -2.52561,-1.73671 -1.53714,-0.93832 -3.69818,-2.08216 -6.31344,-2.95594 -5.34524,-1.78333 -12.38179,-2.4467 -19.6837,2.07383 0.18161,-1.35425 0.30731,-2.26983 1.23709,-3.27385 0,-0.0169 0.0136,-0.0339 0.0136,-0.0515 -8.87606,-12.26466 4.96279,-24.83892 16.95731,-22.60256 1.01838,0.27613 2.5029,-0.90959 3.02045,-1.5921 z m -59.011681,-0.11587 c -1.614835,-0.11249 -3.243967,0.16737 -4.789446,0.93828 -3.763915,1.88616 -5.691884,3.9217 -6.593137,5.86878 -0.901218,1.94711 -0.822342,3.87986 -0.294093,5.6871 1.036305,3.50571 3.791394,6.25605 3.953958,6.4198 0.298836,-0.061 0.602416,-0.11723 0.910807,-0.16839 1.503635,-0.24734 3.123247,-0.39208 4.822921,-0.38249 3.77347,0.0237 7.909101,0.82593 11.962264,3.10051 6.747298,-9.21673 -1.442715,-20.86104 -9.978119,-21.46346 z m 54.137361,3.92647 c -1.45582,-0.0884 -2.94635,0.061 -4.40217,0.44823 -8.81036,2.3487 -10.44068,6.40065 -11.10764,10.09405 -0.50443,2.79694 0.14468,7.39634 2.05825,9.50598 3.03956,-1.49889 7.34016,-1.77377 10.20641,-1.56821 2.79693,0.2104 5.78987,0.75183 8.68482,2.32482 3.3898,-2.51605 7.02222,-9.23465 5.1552,-13.4229 -2.10127,-4.7022 -6.21539,-7.1202 -10.59487,-7.38197 z m -4.79422,5.03804 c 2.57701,0.12062 4.58863,2.07738 4.48224,4.36992 -0.1074,2.29254 -2.29731,4.04839 -4.8755,3.92648 -2.57698,-0.12062 -4.57071,-2.07739 -4.46313,-4.36992 0.1074,-2.29254 2.2782,-4.04839 4.85639,-3.92648 z m -86.49931,-3.7818 c -1.213201,-0.08 -2.599741,0.10265 -3.818905,0.62033 -2.030766,0.8546 -4.673503,3.76869 -4.197771,9.17489 0.546241,6.27993 2.792121,9.03028 4.361521,11.35507 0.597639,-0.27478 1.274154,-0.44344 2.003288,-0.45781 0.461366,-0.0102 0.938285,0.042 1.428349,0.13993 -0.04167,-0.12062 -0.09317,-0.24734 -0.121974,-0.36812 -0.233106,-0.93829 -0.157888,-1.8491 0.257162,-2.57701 0.420743,-0.73391 1.153434,-1.20005 1.895714,-1.41998 0.742246,-0.21989 1.513189,-0.22362 2.297313,-0.0979 0.999238,0.15416 2.021177,0.53191 2.890141,1.14388 -0.457776,-1.70445 -0.770944,-3.47822 -0.989684,-5.2293 -0.42552,-0.44822 -0.84982,-0.84026 -1.278932,-1.18569 -3.124432,-0.83548 -4.090229,2.72162 -4.305378,5.2293 -1.055414,-1.35425 -1.479714,-2.65229 -1.256231,-3.81531 0.229379,-1.16181 1.041082,-1.97459 1.868236,-2.48854 0.354978,-0.21888 0.723136,-0.40519 1.082892,-0.55461 -0.54624,-1.42476 -2.67977,-2.08335 -5.126501,-3.18061 0,0 0.392045,-0.0468 1.041082,-0.0271 1.550256,0.0515 4.631659,0.46256 7.661664,2.67025 -0.09792,-1.62916 -0.149419,-3.19379 -0.135188,-4.60299 -0.350201,-0.45778 -1.751073,-3.5631 -4.416511,-4.16911 -0.350234,-0.08 -0.738688,-0.1362 -1.140287,-0.1589 z m 40.770666,1.94229 c 2.576972,0.12062 4.575483,2.03555 4.467909,4.28624 -0.107744,2.2495 -2.273393,3.97306 -4.851619,3.85116 -2.576972,-0.12062 -4.593406,-2.04032 -4.485832,-4.29101 0.106388,-2.24951 2.292536,-3.97307 4.869542,-3.84639 z m 46.978884,3.22127 c -0.84505,-0.061 -1.57296,0.57013 -1.61003,1.39128 -0.0932,1.94708 2.91288,2.09172 3.00612,0.14468 0.0383,-0.79846 -0.57853,-1.47975 -1.39609,-1.53593 z m -45.732242,-1.83954 c -0.845043,-0.061 -1.574176,0.56057 -1.611209,1.38651 -0.09317,1.94711 2.914061,2.08694 3.002526,0.13993 0.03693,-0.78887 -0.579715,-1.46538 -1.391317,-1.52634 z m 75.353402,19.39923 c -0.39205,0.0102 -0.81276,0.20091 -1.31715,0.55101 -0.0932,0.5331 -0.22836,1.04109 -0.33577,1.56462 0.55102,-0.18634 1.18088,-0.26664 1.79766,-0.23784 0.57372,0.0237 1.10681,0.1589 1.60643,0.36334 0.0837,-0.39204 0.0549,-0.73269 -0.0515,-1.03149 -0.10774,-0.29884 -0.30358,-0.54146 -0.52828,-0.73273 -0.30832,-0.27139 -0.69566,-0.48525 -1.17139,-0.47688 z M 37.265472,128.79668 c -0.989684,-0.0468 -2.395333,0.28935 -2.125194,1.70445 0.08979,0.37412 0.280879,0.88689 0.626337,1.47497 0.620339,-0.24259 1.33033,-0.38727 2.035543,-0.35023 0.821156,0.0383 1.563402,0.29036 2.221994,0.68251 -0.01355,-0.57013 -0.294093,-1.47138 -0.583273,-2.07857 -0.237849,-0.49962 -1.060225,-1.2646 -2.175407,-1.43313 z m 117.318128,7.17641 c -0.0657,0.34542 -0.15891,0.67292 -0.31307,1.01357 0.27613,0.35979 0.50921,0.76498 0.67292,1.19528 0.16738,0.42433 0.2426,0.89166 0.2653,1.36262 0.59408,-0.23785 0.97657,-0.58331 1.17257,-0.94307 0.19618,-0.36338 0.21515,-0.74705 0.15417,-1.11999 -0.0657,-0.37412 -0.21041,-0.74224 -0.51873,-1.02312 -0.30833,-0.27953 -0.77935,-0.45663 -1.43316,-0.48529 z m -3.97307,1.46179 c -1.34466,-0.0657 -2.45625,0.90125 -2.51721,2.2077 -0.06,1.30281 0.95262,2.39052 2.29728,2.45147 1.33989,0.0657 2.43715,-0.91914 2.4981,-2.22677 0.061,-1.30285 -0.93829,-2.36786 -2.27817,-2.4324 z M 31.657276,133.53591 c -0.559387,-0.0102 -1.110404,0.15416 -1.69012,0.64904 -0.462586,1.05064 -0.27478,1.77022 0.705213,2.61048 0.625117,-0.26665 1.335108,-0.57494 2.119197,-0.67296 0.03388,-0.69084 0.271393,-1.41876 0.635892,-2.16104 -0.631114,-0.21989 -1.204833,-0.41593 -1.770182,-0.42552 z m 6.046862,0.36457 c -1.339885,-0.0657 -2.456286,0.92395 -2.517239,2.2268 -0.06471,1.30282 0.957395,2.37142 2.297313,2.43237 1.344662,0.0657 2.437143,-0.90125 2.498096,-2.20766 0.06099,-1.30285 -0.933508,-2.39056 -2.27817,-2.45151 z M 154.66251,141.959 c -0.23785,0.42911 -0.55461,0.78409 -0.9144,1.11996 -0.35498,0.33238 -0.75184,0.63111 -1.20006,0.84148 0.13993,0.27478 0.24734,0.55461 0.32628,0.82116 0.43985,0.23785 0.85463,0.28935 1.21439,0.21989 0.36457,-0.0705 0.67174,-0.25208 0.88689,-0.50443 0.20566,-0.24259 0.35501,-0.5749 0.34068,-0.98487 -0.0136,-0.40641 -0.18161,-0.89289 -0.65382,-1.51323 z m -67.700109,-2.07261 c 4.654393,4.96756 11.359843,3.91689 17.410339,5.26159 -3.90738,1.13432 -7.23618,1.23708 -9.963791,0.82593 1.37336,1.6208 3.426827,3.59058 4.912575,5.28547 -5.32732,-1.81084 -9.076903,-5.70022 -10.174162,-6.94212 -1.871793,-0.98609 -2.764643,-3.16627 -2.184961,-4.43087 z m -53.65685,-1.52278 c -0.681326,0.14468 -1.516814,0.20092 -1.900491,0.93829 0.117231,0.82234 0.33238,1.52277 0.962206,2.17181 0.607194,0.453 1.241865,0.99446 2.106051,0.97058 0.200918,-0.0468 0.35979,-0.12062 0.588084,-0.52236 0.172119,-0.29883 0.340647,-0.81279 0.433889,-1.52278 -0.845077,-0.49962 -1.657864,-1.05541 -2.152706,-2.03554 z m 124.667839,6.55607 c 0.13519,8.28681 0.0271,20.73437 2.93198,33.63969 1.95667,17.65412 12.35912,41.73643 34.37361,55.05772 -3.81532,7.62345 -29.68574,17.31229 -39.63516,18.07845 -2.31646,-25.25486 -12.23356,-37.5721 -23.09379,-44.12698 -7.02221,-4.24439 -12.5826,-7.11664 -20.09488,-11.57022 -1.18572,-0.75658 -1.63872,-16.66802 0.0339,-16.80907 6.1915,-1.81562 10.24826,-5.19583 16.44454,-9.99605 6.77478,-5.25681 12.08295,-12.9615 16.13134,-22.07543 3.27267,2.82559 9.31472,-0.73273 12.91007,-2.19811 z M 40.594313,139.80152 c -0.830711,0.53309 -1.699674,1.02793 -2.796933,1.06022 -0.11723,0.75183 -0.27478,1.4188 -0.555828,1.96981 0.485287,0.3229 1.008826,0.70999 1.685342,0.75658 0.574938,-0.0562 1.13551,-0.10266 1.61602,-0.56894 0.4243,-0.65381 0.854598,-1.36858 0.573719,-2.26025 -0.09792,-0.31306 -0.265294,-0.61197 -0.52232,-0.95742 z m 37.137026,3.48303 c 1.405649,1.66261 1.321961,3.50692 0.925139,6.03253 7.740573,6.37796 16.06564,5.31417 22.382642,4.91257 3.27741,-0.20566 6.11619,-0.85941 8.288,-1.40087 0.76498,-0.19109 1.34467,-0.33238 1.94708,-0.48169 -0.5235,-1.81562 -0.32255,-4.38426 0.94788,-5.51377 1.059,4.31012 3.89297,7.15249 6.94689,7.71306 -0.55102,1.74629 -2.94154,2.27461 -4.8277,1.49408 -2.56264,4.4775 -11.92879,12.6627 -19.021513,12.00411 -8.381243,-0.77931 -16.476828,-10.12632 -18.801619,-15.85527 -1.243085,1.2132 -2.838776,2.16107 -4.846808,2.45988 3.142356,-3.44597 5.616565,-5.52336 6.060009,-11.36463 z m -0.368125,7.61508 c 4.448766,7.48954 10.159793,14.41851 18.292412,15.49666 6.331334,0.21515 13.885464,-5.78509 18.676094,-13.28304 -5.5138,1.77378 -11.49012,3.26308 -17.895596,3.15672 -5.948843,-0.35023 -13.311737,-0.85463 -19.07291,-5.37034 z m 17.083988,19.62392 c 0.153145,0.0102 0.302224,0.043 0.44822,0.0945 0.793645,0.28461 4.201362,0.90963 3.912112,1.61962 -0.28935,0.70999 -3.8105,0.2846 -4.604179,0 -0.798421,-0.28461 -4.588629,0.45777 -4.294604,-0.24734 0.233106,-0.56538 3.865493,-1.518 4.538451,-1.4666 z m 12.166648,8.54977 c -3.96829,0.92873 -7.656896,1.23713 -10.775365,0.93829 -3.539178,-0.29409 -6.85965,-0.72791 -9.963753,-1.30763 1.102035,3.29655 2.581783,10.01041 -0.247337,17.29917 5.901036,4.73446 13.292599,4.62688 21.429995,1.965 -1.66142,-3.6886 -1.70326,-8.4876 -1.32555,-12.64833 0.22362,-2.49813 0.58327,-4.69624 0.88211,-6.2465 z m 2.41444,20.17976 c -5.22452,2.72639 -10.150246,3.66949 -13.157516,3.287 -2.56386,-0.32764 -5.155198,-1.30763 -11.588142,-3.82965 -1.326773,0.12672 -17.915918,6.75208 -27.542617,14.56794 -11.906088,9.97811 -15.781169,16.84136 -23.02331,25.76406 8.680079,11.19132 21.640362,22.71014 35.115849,27.86412 13.114512,3.11488 84.088436,3.30614 79.461586,-20.34706 -4.28624,-22.26192 -6.38277,-25.06363 -17.88723,-34.54691 -1.47974,-1.25982 -15.10821,-9.30038 -21.37862,-12.7595 z m -29.648676,3.02045 c -6.57877,3.79139 -7.36286,4.78108 -18.101149,13.64279 -9.507198,7.84338 -13.774324,10.27218 -22.612121,22.04678 8.54855,-13.79699 13.385802,-16.70509 22.11606,-23.63888 9.721126,-7.72739 12.452328,-9.94464 18.59721,-12.05069 z m 29.937956,1.90046 c 9.65059,2.82922 15.85164,7.95094 21.71565,11.86427 4.59462,3.55233 8.34299,8.15651 13.95599,23.56356 -5.97157,-13.77788 -10.33791,-18.62473 -14.60022,-22.02285 -5.08469,-4.05794 -12.94239,-9.92195 -21.07142,-13.40498 z m -5.00581,34.6951 c 0.52354,0.0237 1.05544,0.0515 1.58373,0.10741 0,0 -13.475463,2.48857 -19.194825,14.8381 -0.612005,-1.71404 -1.741518,-3.83323 0.144675,-8.42786 -4.159552,3.83802 -4.154774,5.92018 -4.154774,5.92018 0,0 -2.049876,-3.60372 2.385744,-6.80707 4.117708,-3.10051 11.392137,-6.03253 19.23192,-5.63093 z" />
  </g>
</svg>
